# xmcd
#
# Track frame offsets: 
#        150
#        16565
#        34201
#        51108
#        70262
#        86531
#        101898
#        116575
#        133704
#        149863
#        167993
#        186428
#        201755
#
# Disc length: 2920 seconds
#
# Revision: 3
# Processed by: cddbd v1.5.2PL0 Copyright (c) Steve Scherf et al.
# Submitted via: ExactAudioCopy v0.99pb5
#
DISCID=c10b660d
DTITLE=Rucker, Darius - Charleston, SC 1966
DYEAR=2010
DGENRE=Country*
TTITLE0=This
TTITLE1=Come Back Song
TTITLE2=Might Get Lucky
TTITLE3=Whiskey And You
TTITLE4=Southern State Of Mind
TTITLE5=Love Will Do That
TTITLE6=The Craziest Thing
TTITLE7=Things I'd Never Do
TTITLE8=We All Fall Down
TTITLE9=I Don't Care (with Brad Paisley)
TTITLE10=She's Beautiful
TTITLE11=I Got Nothin'
TTITLE12=In A Big Way
EXTD=
EXTT0=
EXTT1=
EXTT2=
EXTT3=
EXTT4=
EXTT5=
EXTT6=
EXTT7=
EXTT8=
EXTT9=
EXTT10=
EXTT11=
EXTT12=
PLAYORDER=
